<?xml version="1.0" encoding="utf-8"?>
<!-- Generator: Adobe Illustrator 22.0.0, SVG Export Plug-In . SVG Version: 6.00 Build 0)  -->
<svg version="1.1" id="fire" xmlns="http://www.w3.org/2000/svg" xmlns:xlink="http://www.w3.org/1999/xlink" x="0px" y="0px"
	 viewBox="0 0 285.9 250" style="enable-background:new 0 0 285.9 250;" xml:space="preserve">
<title>Fire symbol</title>
<path d="M284.7,236.5l-134-232c-2.5-4.3-8-5.7-12.3-3.2c-1.3,0.8-2.4,1.9-3.2,3.2l-134,232c-2.5,4.3-1,9.8,3.4,12.3
	c1.3,0.8,2.9,1.2,4.4,1.2h268c5-0.1,9-4.1,8.9-9.1C285.9,239.4,285.5,237.9,284.7,236.5z M24.4,225.4L134,35.5l109.6,189.9H24.4z"/>
<path d="M172.1,199.2l-5.3-34.3c5.1-0.6,9.2-4.9,9.2-10.2c0-5.7-4.6-10.3-10.3-10.3s-10.3,4.6-10.3,10.3c0,5.2,4,9.6,9,10.2l0.6,3.6
	l-10-5.7l-1.2,2l11.4,6.6l0.1-0.2l1.5,10l-19-11l-0.1-0.1l-0.1,0l0,0l-0.1,0.1l-9.6,6.6l0.2,0.3h-18.8v-19v-2.3v-2.3H82.3v4.6h32.6
	v19v4.3v0.3h32.6v22.1h4.1h0.5h32.1v21.1h4.6v-21.1v-4.5v-0.1H172.1z M156.5,154.7c0-5.1,4.1-9.2,9.2-9.2c5.1,0,9.2,4.1,9.2,9.2
	c0,5.1-4.1,9.2-9.2,9.2C160.6,163.9,156.5,159.7,156.5,154.7z M152.1,199.2v-17.5v-3.5v-1.1h-10.3l6.3-4.4l19.3,11.1l2.4,15.3H152.1
	z"/>
</svg>
